<?xml version="1.0" encoding="UTF-8" standalone="no"?>
<!-- Created with Inkscape (http://www.inkscape.org/) -->

<svg
   width="24in"
   height="6in"
   viewBox="0 0 609.6 152.4"
   version="1.1"
   id="svg1"
   inkscape:version="1.3 (0e150ed6c4, 2023-07-21)"
   sodipodi:docname="einstein tile 2.svg"
   xmlns:inkscape="http://www.inkscape.org/namespaces/inkscape"
   xmlns:sodipodi="http://sodipodi.sourceforge.net/DTD/sodipodi-0.dtd"
   xmlns="http://www.w3.org/2000/svg"
   xmlns:svg="http://www.w3.org/2000/svg">
  <sodipodi:namedview
     id="namedview1"
     pagecolor="#ffffff"
     bordercolor="#000000"
     borderopacity="0.25"
     inkscape:showpageshadow="2"
     inkscape:pageopacity="0.0"
     inkscape:pagecheckerboard="0"
     inkscape:deskcolor="#d1d1d1"
     inkscape:document-units="mm"
     inkscape:zoom="0.7408333"
     inkscape:cx="479.19012"
     inkscape:cy="96.51294"
     inkscape:window-width="1920"
     inkscape:window-height="1009"
     inkscape:window-x="-8"
     inkscape:window-y="-8"
     inkscape:window-maximized="1"
     inkscape:current-layer="layer2"
     showguides="true">
    <sodipodi:guide
       position="0,12.700002"
       orientation="0,1"
       id="guide4"
       inkscape:locked="false"
       inkscape:label=""
       inkscape:color="rgb(0,134,229)" />
    <sodipodi:guide
       position="609.59998,152.4"
       orientation="-1,0"
       id="guide5"
       inkscape:locked="false"
       inkscape:label=""
       inkscape:color="rgb(0,134,229)" />
  </sodipodi:namedview>
  <defs
     id="defs1" />
  <g
     inkscape:label="Layer 1"
     inkscape:groupmode="layer"
     id="layer1"
     style="display:none">
    <g
       id="g4"
       transform="matrix(0.37976005,0,0,0.37976005,66.779588,41.665053)">
      <path
         style="fill:#000000;stroke:none;stroke-width:0.264583;stroke-linecap:round;stroke-linejoin:round;stroke-dasharray:none"
         d="M 138.44217,230.76774 105,211.4599 116.14739,192.15205 Z"
         id="path35-5" />
      <path
         style="fill:#000000;stroke:none;stroke-width:0.264583;stroke-linecap:round;stroke-linejoin:round;stroke-dasharray:none"
         d="M 138.44217,153.53636 105,134.22852 93.852606,153.53637 Z"
         id="path35-3-3" />
      <path
         style="fill:#000000;stroke:none;stroke-width:0.264583;stroke-linecap:round;stroke-linejoin:round;stroke-dasharray:none"
         d="m 138.44217,230.76774 33.44217,-19.30785 -11.1474,-19.30785 z"
         id="path35-3-4-3" />
      <path
         style="fill:#000000;stroke:none;stroke-width:0.264583;stroke-linecap:round;stroke-linejoin:round;stroke-dasharray:none"
         d="m 138.44217,153.53637 v 38.61569 h -22.29478 z"
         id="path35-9-3" />
      <path
         style="fill:#000000;stroke:none;stroke-width:0.264583;stroke-linecap:round;stroke-linejoin:round;stroke-dasharray:none"
         d="m 71.557826,192.15206 v -38.61569 h 22.29478 z"
         id="path35-9-5-9" />
      <path
         style="fill:#000000;stroke:none;stroke-width:0.264583;stroke-linecap:round;stroke-linejoin:round;stroke-dasharray:none"
         d="M 71.557836,192.15206 38.115661,211.4599 49.263056,230.76775 Z"
         id="path35-6-6" />
      <path
         style="fill:#000000;stroke:none;stroke-width:0.264583;stroke-linecap:round;stroke-linejoin:round;stroke-dasharray:none"
         d="m 71.55783,192.15206 -8e-6,38.61569 h 22.294787 z"
         id="path35-6-6-1" />
      <path
         style="fill:#000000;stroke:none;stroke-width:0.264583;stroke-linecap:round;stroke-linejoin:round;stroke-dasharray:none"
         d="m 71.557822,192.15206 8e-6,38.61569 H 49.263043 Z"
         id="path35-6-6-1-9" />
      <path
         style="fill:#000000;stroke:none;stroke-width:0.264583;stroke-linecap:round;stroke-linejoin:round;stroke-dasharray:none"
         d="M 138.44217,153.53637 105,172.8442 l 11.14739,19.30786 z"
         id="path35-6-6-1-8" />
      <path
         style="fill:#000000;stroke:none;stroke-width:0.264583;stroke-linecap:round;stroke-linejoin:round;stroke-dasharray:none"
         d="M 138.44217,153.53636 105,172.84421 93.852609,153.53636 Z"
         id="path35-6-6-1-9-0" />
      <path
         style="fill:#000000;stroke:none;stroke-width:0.264583;stroke-linecap:round;stroke-linejoin:round;stroke-dasharray:none"
         d="M 71.557836,192.15205 105,211.45991 116.1474,192.15206 Z"
         id="path35-6-6-1-2-2" />
      <path
         style="fill:#000000;stroke:none;stroke-width:0.264583;stroke-linecap:round;stroke-linejoin:round;stroke-dasharray:none"
         d="M 71.557831,192.15206 105.00001,211.4599 93.852606,230.76776 Z"
         id="path35-6-6-1-9-5-9" />
      <path
         style="fill:#000000;stroke:none;stroke-width:0.264583;stroke-linecap:round;stroke-linejoin:round;stroke-dasharray:none"
         d="m 138.44216,230.76774 1e-5,-38.61569 h -22.29479 z"
         id="path35-6-6-1-2-8" />
      <path
         style="fill:#000000;stroke:none;stroke-width:0.264583;stroke-linecap:round;stroke-linejoin:round;stroke-dasharray:none"
         d="m 138.44217,230.76774 -1e-5,-38.61569 h 22.29479 z"
         id="path35-6-6-1-9-5-8" />
      <path
         style="fill:#000000;stroke:none;stroke-width:0.264583;stroke-linecap:round;stroke-linejoin:round;stroke-dasharray:none"
         d="M 71.557835,192.15206 105.00001,172.84422 93.852615,153.53637 Z"
         id="path35-6-6-1-0" />
      <path
         style="fill:#000000;stroke:none;stroke-width:0.264583;stroke-linecap:round;stroke-linejoin:round;stroke-dasharray:none"
         d="m 71.557835,192.15206 33.442175,-19.30784 11.14739,19.30785 z"
         id="path35-6-6-1-9-8" />
    </g>
  </g>
  <g
     inkscape:label="Layer 1"
     inkscape:groupmode="layer"
     id="layer1-4"
     transform="translate(11.015109,-126.31815)"
     style="mix-blend-mode:normal;fill:none;stroke:#ff00ff" />
  <g
     inkscape:groupmode="layer"
     id="layer2"
     inkscape:label="Layer 2"
     style="display:inline">
    <path
       id="path35-5-5"
       style="fill:none;stroke:#ff00ff;stroke-width:0.24534;stroke-linecap:round;stroke-linejoin:round;stroke-dasharray:none"
       d="M 25.000002,0.12266551 20.853683,7.3039555 H 12.561239 V 21.666917 L 0.12266551,28.848399 4.2687925,36.02988 h 8.2924465 8.292444 l 4.146319,-7.181481 12.438574,7.181481 12.438761,-7.181481 -4.14612,-7.181482 H 37.438576 V 7.3039555 Z" />
    <path
       id="path35-5-5-7"
       style="display:inline;fill:none;stroke:#ff00ff;stroke-width:0.24534;stroke-linecap:round;stroke-linejoin:round;stroke-dasharray:none"
       d="m 25.000036,28.848517 -4.146319,7.181289 h -8.292444 v 14.362962 l -12.4385738,7.181482 4.146127,7.181481 h 8.2924468 8.292444 L 25.000036,57.57425 37.43861,64.755731 49.877371,57.57425 45.731251,50.392768 H 37.43861 V 36.029806 Z" />
    <path
       id="path35-5-5-3"
       style="display:inline;fill:none;stroke:#ff00ff;stroke-width:0.24534;stroke-linecap:round;stroke-linejoin:round;stroke-dasharray:none"
       d="m 25.000024,57.574331 -4.146319,7.18129 h -8.292444 v 14.362961 l -12.4385734,7.181482 4.146127,7.181481 h 8.2924464 8.292444 l 4.146319,-7.181481 12.438574,7.181481 12.438761,-7.181481 -4.14612,-7.181482 H 37.438598 V 64.755621 Z" />
    <path
       id="path35-5-5-0"
       style="display:inline;fill:none;stroke:#ff00ff;stroke-width:0.24534;stroke-linecap:round;stroke-linejoin:round;stroke-dasharray:none"
       d="m 74.754587,43.211304 -4.146023,-7.181463 4.146223,-7.181467 -12.43869,-7.181481 -5.9e-5,-14.362861 -8.292408,-9e-5 -4.146224,7.18147 -4.146222,7.181467 4.146186,7.181558 -12.438632,7.181381 -3.6e-5,14.363023 8.292406,9.6e-5 4.146321,-7.181638 12.438689,7.181481 z" />
    <path
       id="path35-5-5-0-6"
       style="display:inline;fill:none;stroke:#ff00ff;stroke-width:0.24534;stroke-linecap:round;stroke-linejoin:round;stroke-dasharray:none"
       d="m 99.631884,57.574218 -4.14602,-7.181463 4.14622,-7.181466 -12.438689,-7.181481 -5.9e-5,-14.362861 -8.292408,-9e-5 -4.146224,7.181469 -4.146222,7.181467 4.146186,7.181558 -12.438632,7.181381 -3.6e-5,14.363024 8.292406,9.6e-5 4.146322,-7.181639 12.438688,7.181482 z" />
    <path
       id="path35-5-5-0-6-1"
       style="display:inline;fill:none;stroke:#ff00ff;stroke-width:0.24534;stroke-linecap:round;stroke-linejoin:round;stroke-dasharray:none"
       d="m 112.07067,64.755854 -8.29234,-1.72e-4 -4.146227,-7.181467 -12.43868,7.181474 -12.438631,-7.181378 -4.146283,7.181392 4.146222,7.18147 4.146222,7.181471 8.29251,8e-5 -6e-5,14.362859 12.43872,7.181537 4.146287,-7.181376 -4.146317,-7.18164 12.438687,-7.18149 z" />
    <path
       id="path35-5-5-3-1"
       style="display:inline;fill:none;stroke:#ff00ff;stroke-width:0.24534;stroke-linecap:round;stroke-linejoin:round;stroke-dasharray:none"
       d="m 49.87756,86.300103 4.14602,7.18146 -4.146222,7.181467 12.438688,7.18148 5.8e-5,14.36286 8.292408,9e-5 4.146223,-7.18147 4.146222,-7.18147 -4.146185,-7.18155 12.438631,-7.181387 3.7e-5,-14.363018 -8.292405,-9.5e-5 -4.14632,7.181633 -12.438688,-7.181475 z" />
    <path
       id="path35-5-5-0-6-1-3"
       style="display:inline;fill:none;stroke:#ff00ff;stroke-width:0.24534;stroke-linecap:round;stroke-linejoin:round;stroke-dasharray:none"
       d="m 136.94797,50.392934 -8.29234,-1.7e-4 -4.14623,-7.181466 -12.43868,7.181476 -12.438636,-7.18138 -4.146283,7.18139 4.146222,7.18147 4.146227,7.18147 8.29251,8e-5 -6e-5,14.36286 12.43872,7.18154 4.14629,-7.18138 -4.14632,-7.18164 12.43869,-7.18149 z" />
    <path
       id="path35-5-5-0-0"
       style="display:inline;fill:none;stroke:#ff00ff;stroke-width:0.24534;stroke-linecap:round;stroke-linejoin:round;stroke-dasharray:none"
       d="m 37.438787,79.118498 8.292341,1.7e-4 4.146222,7.181468 12.43869,-7.181481 12.438632,7.181381 4.146282,-7.181392 -4.146224,-7.181471 -4.146222,-7.181467 -8.292504,-7.6e-5 5.7e-5,-14.362862 -12.438725,-7.181546 -4.146286,7.18139 4.146321,7.181638 -12.43869,7.18148 z" />
    <path
       id="path35-5-5-0-6-1-34"
       style="display:inline;fill:none;stroke:#ff00ff;stroke-width:0.24534;stroke-linecap:round;stroke-linejoin:round;stroke-dasharray:none"
       d="m 112.07061,7.3040775 -8.29234,-1.7e-4 -4.146234,-7.18147 -12.43868,7.18147 -12.43863,-7.18137 -4.14628,7.18139 4.14622,7.1814695 4.14622,7.18147 8.29251,8e-5 -6e-5,14.36286 12.43872,7.18154 4.146294,-7.18138 -4.146325,-7.18164 12.438695,-7.18149 z" />
    <path
       id="path35-5-5-0-6-1-1"
       style="display:inline;fill:none;stroke:#ff00ff;stroke-width:0.24534;stroke-linecap:round;stroke-linejoin:round;stroke-dasharray:none"
       d="m 99.63225,43.211299 4.14602,-7.181463 -4.14622,-7.181474 12.43868,-7.181476 6e-5,-14.362858 8.29241,-8.8e-5 4.14623,7.181467 4.14622,7.181467 -4.14618,7.181564 12.43863,7.181378 3e-5,14.363016 -8.2924,1.04e-4 -4.14632,-7.181638 -12.4387,7.181476 z" />
    <path
       id="path35-5-5-3-0"
       style="display:inline;fill:none;stroke:#ff00ff;stroke-width:0.24534;stroke-linecap:round;stroke-linejoin:round;stroke-dasharray:none"
       d="m 62.31597,122.20741 -8.29233,1.7e-4 -4.14622,7.18147 -12.438696,-7.18148 -12.438631,7.18138 -4.146282,-7.1814 4.146223,-7.18147 4.146222,-7.18146 8.292506,-8e-5 -6.1e-5,-14.362859 12.438729,-7.181541 4.14628,7.181385 -4.14632,7.181635 12.4387,7.18149 z" />
    <path
       id="path35-5-5-3-86"
       style="display:inline;fill:none;stroke:#ff00ff;stroke-width:0.24534;stroke-linecap:round;stroke-linejoin:round;stroke-dasharray:none"
       d="m 124.50953,14.485408 4.14602,7.181464 -4.14622,7.181463 12.43869,7.181477 5e-5,14.36286 8.29242,1e-4 4.14621,-7.181469 4.14623,-7.18147 -4.14619,-7.181559 12.43863,-7.181382 4e-5,-14.3630275 -8.29241,-9.3e-5 -4.14632,7.1816365 -12.43869,-7.1814805 z" />
    <path
       id="path35-5-5-3-38"
       style="display:inline;fill:none;stroke:#ff00ff;stroke-width:0.24534;stroke-linecap:round;stroke-linejoin:round;stroke-dasharray:none"
       d="m 149.38689,43.211542 -4.14632,7.18129 h -8.29244 v 14.362961 l -12.43857,7.181482 4.14612,7.181481 h 8.29245 8.29244 l 4.14632,-7.181481 12.43858,7.181481 12.43876,-7.181481 -4.14612,-7.181482 h -8.29264 V 50.392832 Z" />
    <path
       id="path35-5-5-3-8"
       style="display:inline;fill:none;stroke:#ff00ff;stroke-width:0.24534;stroke-linecap:round;stroke-linejoin:round;stroke-dasharray:none"
       d="m 74.754934,100.66306 4.14602,7.18147 -4.14622,7.18146 12.43869,7.18148 6e-5,14.36286 8.2924,9e-5 4.14623,-7.18147 4.146216,-7.18146 -4.146186,-7.18156 12.438636,-7.18139 3e-5,-14.363019 -8.2924,-9.5e-5 -4.146316,7.181634 -12.43869,-7.181478 z" />
    <path
       id="path35-5-5-3-3"
       style="display:inline;fill:none;stroke:#ff00ff;stroke-width:0.24534;stroke-linecap:round;stroke-linejoin:round;stroke-dasharray:none"
       d="m 124.50963,115.02568 4.14632,-7.18129 h 8.29244 V 93.481426 l 12.43857,-7.18148 -4.14612,-7.18148 h -8.29245 -8.29244 l -4.14632,7.18148 -12.43858,-7.18148 -12.43876,7.18148 4.14612,7.18148 h 8.29264 v 14.362964 z" />
    <path
       id="path35-5-5-3-87"
       style="display:inline;fill:none;stroke:#ff00ff;stroke-width:0.24534;stroke-linecap:round;stroke-linejoin:round;stroke-dasharray:none"
       d="m 186.70276,79.118913 -8.29234,-1.73e-4 -4.14622,-7.181464 -12.43869,7.181479 -12.43863,-7.181377 -4.14629,7.18139 4.14623,7.181475 4.14622,7.18146 8.29251,7e-5 -6e-5,14.362877 12.43873,7.18153 4.14628,-7.18138 -4.14632,-7.18164 12.43869,-7.181477 z" />
    <path
       id="path4-8-0"
       style="display:inline;mix-blend-mode:normal;fill:none;stroke:#00ff00;stroke-width:1;stroke-linecap:round;stroke-linejoin:round;stroke-dasharray:none"
       d="m 161.82547,107.84475 16.58502,4e-5 M 149.38682,86.300233 161.8255,79.118755 m -8.29246,14.362948 8.29244,-14.362843 m -16.58489,-9.7e-5 16.58489,9.7e-5 m 0,0 12.43867,7.181483 -4.14623,7.18147 z m 0,0 12.43867,7.181483 4.14623,-7.181478 z m 0,28.72589 12.43868,-7.18148 -4.14623,-7.181477 z m 0,-28.72589 -1e-5,14.362953 8.29246,-1e-5 z m 24.87735,14.362953 -12.43868,-7.18148 4.14623,-7.181468 z m 0,0 -12.43868,-7.18148 -4.14623,7.18148 z" />
    <path
       id="path35-5-5-3-06"
       style="display:inline;fill:none;stroke:#ff00ff;stroke-width:0.24534;stroke-linecap:round;stroke-linejoin:round;stroke-dasharray:none"
       d="m 149.38706,86.300068 4.14632,7.181291 8.29245,-3e-6 -1e-5,14.362954 12.43857,7.18148 -4.14612,7.1815 h -8.29246 -8.29244 l -4.1463,-7.18149 -12.43858,7.18148 -12.43877,-7.18149 4.14611,-7.18147 8.29265,-1e-5 V 93.481357 Z" />
    <path
       id="path35-5-5-3-4"
       style="display:inline;fill:none;stroke:#ff00ff;stroke-width:0.24534;stroke-linecap:round;stroke-linejoin:round;stroke-dasharray:none"
       d="m 149.38716,28.84843 4.14601,7.181463 -4.14622,7.181464 12.43869,7.181481 6e-5,14.362858 8.29241,9.7e-5 4.14623,-7.181473 4.14622,-7.181464 -4.14619,-7.181559 12.43864,-7.181385 3e-5,-14.363024 -8.29241,-9.6e-5 -4.14632,7.181637 -12.43869,-7.18148 z" />
  </g>
  <g
     inkscape:groupmode="layer"
     id="layer3"
     inkscape:label="Layer 3"
     style="display:inline;stroke-width:1;stroke-dasharray:none">
    <path
       id="path4-8-5"
       style="display:inline;mix-blend-mode:normal;fill:none;stroke:#00ff00;stroke-width:1;stroke-linecap:round;stroke-linejoin:round;stroke-dasharray:none"
       d="m 112.07096,79.118406 -8.29254,14.36302 m 33.16997,-14.36296 v 14.36296 m -8.29244,-14.36296 8.29236,14.36289 m 8.29253,-14.36289 -8.29253,14.36289 m 0,0 -12.43868,7.181464 -4.14622,-7.181474 z m 0,0 -12.43868,7.181464 4.14623,7.18148 z m -24.87735,-14.36295 v 14.36295 h 8.29246 z m 24.87735,14.36295 -12.43867,-7.18149 -4.14623,7.18149 z m -24.87735,14.362944 12.43868,-7.18147 4.14622,7.18147 z m 0,0 12.43868,-7.18147 -4.14623,-7.181474 z" />
    <path
       id="path4"
       style="mix-blend-mode:normal;fill:none;stroke:#00ff00;stroke-width:1;stroke-linecap:round;stroke-linejoin:round;stroke-dasharray:none"
       d="m 26.423555,162.34809 8.292549,-14.36302 M 1.5461285,162.34803 v -14.36296 m 8.292445,14.36296 -8.292368,-14.36289 m -8.292522,14.36289 8.292522,-14.36289 m 0,0 12.4386795,-7.18146 4.146226,7.18147 z m 0,0 12.4386795,-7.18146 -4.1462275,-7.18148 z m 24.8773495,14.36295 4e-6,-14.36295 h -8.292455 z m -24.8773495,-14.36295 12.4386755,7.18149 4.14623,-7.18149 z M 26.423559,133.6222 13.984881,140.80367 9.8386555,133.6222 Z m 0,0 -12.438678,7.18147 4.146227,7.18147 z"
       transform="translate(11.015109,-126.31815)" />
    <path
       id="path4-8-1"
       style="display:inline;mix-blend-mode:normal;fill:none;stroke:#00ff00;stroke-width:1;stroke-linecap:round;stroke-linejoin:round;stroke-dasharray:none"
       d="m 37.438694,93.481573 16.585016,-4.8e-5 m -29.023677,21.544565 12.43869,7.18148 m -8.292467,-14.36295 8.292445,14.36285 m -16.58489,8e-5 16.58489,-8e-5 m 0,0 12.438669,-7.18149 -4.14622,-7.18147 z m 0,0 12.438669,-7.18149 4.14623,7.18148 z m -7e-6,-28.725897 12.438686,7.181467 -4.14623,7.18148 z m 7e-6,28.725897 -1.3e-5,-14.36296 h 8.292472 z m 24.877349,-14.36296 -12.43867,7.18148 4.14622,7.18147 z m 0,0 -12.43867,7.18148 -4.14623,-7.18147 z" />
    <path
       id="path4-2-2-7-2"
       style="display:inline;mix-blend-mode:normal;fill:none;stroke:#00ff00;stroke-width:1;stroke-linecap:round;stroke-linejoin:round;stroke-dasharray:none"
       d="m 136.94819,36.029858 -8.29246,14.363065 m -4.1463,-35.907516 -12.4387,7.181479 m 16.58492,-1.2e-5 -16.58482,4.6e-5 M 120.3632,7.303941 112.07083,21.66692 m 0,0 2e-5,14.362937 8.29244,1.2e-5 z m 0,0 2e-5,14.362937 -8.29246,1.3e-5 z m 24.87736,14.362938 -12.43868,7.181477 -4.14623,-7.181471 z m -24.87736,-14.362938 12.4387,7.181463 -4.14624,7.181485 z m 1e-5,28.725884 -1e-5,-14.362935 -8.29244,-10e-6 z m 0,0 -1e-5,-14.362935 8.29245,-5e-6 z" />
    <path
       id="path4-8-8"
       style="display:inline;mix-blend-mode:normal;fill:none;stroke:#00ff00;stroke-width:1;stroke-linecap:round;stroke-linejoin:round;stroke-dasharray:none"
       d="m 136.94839,122.20734 -8.29254,-14.36302 m 33.16996,14.36297 v -14.36297 m -8.29244,14.36297 8.29237,-14.3629 m 8.29253,14.36289 -8.29253,-14.36289 m 0,0 -12.43868,-7.18146 -4.14623,7.18147 z m 0,0 -12.43868,-7.18146 4.14623,-7.181481 z m -24.87735,14.36295 v -14.36295 l 8.29245,10e-6 z m 24.87735,-14.36295 -12.43867,7.18148 -4.14624,-7.18148 z m -24.87736,-14.362939 12.43869,7.181469 4.14622,-7.181471 z m 0,0 12.43869,7.181469 -4.14624,7.18147 z" />
    <path
       id="path4-2-2-7-3"
       style="display:inline;mix-blend-mode:normal;fill:none;stroke:#00ff00;stroke-width:1;stroke-linecap:round;stroke-linejoin:round;stroke-dasharray:none"
       d="m 112.07069,79.118764 16.58501,5e-5 m -29.023675,-21.54456 12.438695,-7.18148 m -8.29247,14.36295 8.29245,-14.36285 m -16.584897,-9e-5 16.584897,9e-5 m 0,0 12.43866,7.18148 -4.14621,7.18147 z m 0,0 12.43866,7.18148 4.14624,-7.18147 z m -1e-5,28.72589 12.43868,-7.18147 -4.14622,-7.18148 z m 1e-5,-28.72589 -2e-5,14.36296 8.29247,-10e-6 z m 24.87734,14.36295 -12.43866,-7.18148 4.14621,-7.18146 z m 0,0 -12.43866,-7.18148 -4.14623,7.18147 z" />
    <path
       id="path4-2-2"
       style="display:inline;mix-blend-mode:normal;fill:none;stroke:#00ff00;stroke-width:1;stroke-linecap:round;stroke-linejoin:round;stroke-dasharray:none"
       d="m 62.315943,50.392779 8.292465,14.363069 m 4.1463,-35.907522 12.438688,7.18148 m -16.584911,-1.1e-5 16.584812,4.4e-5 m -8.292367,-14.36298 8.292367,14.36298 m 0,0 -1.3e-5,14.362941 -8.292449,3e-6 z m 0,0 -1.3e-5,14.362941 8.29246,10e-7 z M 62.315943,50.39278 74.75462,57.574258 78.900848,50.392781 Z m 24.877354,-14.362941 -12.438691,7.181464 4.146238,7.181485 z m -6e-6,28.72589 4e-6,-14.362946 8.292449,-3e-6 z m 0,0 4e-6,-14.362946 -8.292449,3e-6 z" />
    <path
       id="path4-2-2-7"
       style="display:inline;mix-blend-mode:normal;fill:none;stroke:#00ff00;stroke-width:1;stroke-linecap:round;stroke-linejoin:round;stroke-dasharray:none"
       d="m 87.193393,93.481684 16.585007,5e-5 M 74.754733,71.937173 87.193423,64.755689 m -8.292467,14.362955 8.292447,-14.362853 m -16.584892,-8.6e-5 16.584892,8.6e-5 m 0,0 12.43866,7.181483 -4.14621,7.18147 z m 0,0 12.43866,7.181483 4.146237,-7.181472 z m -1e-5,28.725893 12.43868,-7.181471 -4.14622,-7.181479 z m 1e-5,-28.725893 -2e-5,14.362962 8.29247,-1e-5 z m 24.877337,14.362952 -12.438657,-7.18148 4.146207,-7.181466 z m 0,0 -12.438657,-7.18148 -4.14623,7.181471 z" />
    <path
       id="path4-8"
       style="display:inline;mix-blend-mode:normal;fill:none;stroke:#00ff00;stroke-width:1;stroke-linecap:round;stroke-linejoin:round;stroke-dasharray:none"
       d="m 37.438686,93.481605 8.292549,-14.36302 M 12.56126,93.481545 v -14.36296 m 8.292445,14.36296 -8.292369,-14.36289 m -8.2925214,14.36289 8.2925214,-14.36289 m 0,0 12.43868,-7.18146 4.146226,7.18147 z m 0,0 12.43868,-7.18146 -4.146228,-7.18148 z m 24.87735,14.36295 4e-6,-14.36295 h -8.292455 z m -24.87735,-14.36295 12.438676,7.18149 4.14623,-7.18149 z m 24.877354,-14.36294 -12.438678,7.18147 -4.146225,-7.18147 z m 0,0 -12.438678,7.18147 4.146227,7.18147 z" />
    <path
       id="path4-8-9"
       style="display:inline;mix-blend-mode:normal;fill:none;stroke:#00ff00;stroke-width:1;stroke-linecap:round;stroke-linejoin:round;stroke-dasharray:none"
       d="m 87.193499,93.481543 -8.292466,-14.36307 m -4.146299,35.907517 -12.438688,-7.18148 m 16.584911,1e-5 -16.584812,-4e-5 m 8.292367,14.36298 -8.292367,-14.36298 m 0,0 1.3e-5,-14.362937 h 8.292448 z m 0,0 1.3e-5,-14.362937 h -8.292455 z m 24.877354,-14.362937 -12.438677,-7.18148 -4.146228,7.18148 z m -24.877354,14.362937 12.43869,-7.18146 -4.146237,-7.181487 z m 9e-6,-28.725885 -7e-6,14.362948 h -8.292444 z m 0,0 -7e-6,14.362948 8.292449,-1e-5 z" />
    <path
       id="path4-2"
       style="display:inline;mix-blend-mode:normal;fill:none;stroke:#00ff00;stroke-width:1;stroke-linecap:round;stroke-linejoin:round;stroke-dasharray:none"
       d="m 37.438645,36.029865 8.292465,14.363068 m 4.1463,-35.907521 12.438688,7.18148 m -16.584911,-1.2e-5 16.584812,4.4e-5 m -8.292367,-14.36298 8.292367,14.36298 m 0,0 -1.3e-5,14.362942 -8.292449,2e-6 z m 0,0 -1.3e-5,14.362942 8.292458,1e-6 z m -24.877354,14.362941 12.438677,7.181479 4.146228,-7.181477 z m 24.877354,-14.362941 -12.438691,7.181464 4.146238,7.181485 z m -6e-6,28.72589 4e-6,-14.362946 8.292448,-2e-6 z m 0,0 4e-6,-14.362946 -8.292449,3e-6 z" />
    <path
       id="path4-2-2-7-7"
       style="display:inline;mix-blend-mode:normal;fill:none;stroke:#00ff00;stroke-width:1;stroke-linecap:round;stroke-linejoin:round;stroke-dasharray:none"
       d="m 87.193326,36.029907 16.585014,5e-5 M 74.754666,14.485397 87.193356,7.3039075 m -8.29247,14.3629595 8.29245,-14.3628495 m -16.58489,-9e-5 16.58489,9e-5 m 0,0 12.43866,7.1814795 -4.14621,7.18147 z m 0,0 12.43866,7.1814795 4.146244,-7.1814695 z m -1e-5,28.7258895 12.43868,-7.18147 -4.14622,-7.18148 z m 1e-5,-28.7258895 -2e-5,14.3629595 8.29247,-10e-6 z M 112.07068,21.666967 99.632016,14.485487 103.77823,7.3040175 Z m 0,0 -12.438664,-7.18148 -4.14623,7.18147 z" />
    <path
       id="path4-5"
       style="display:inline;mix-blend-mode:normal;fill:none;stroke:#00ff00;stroke-width:1;stroke-linecap:round;stroke-linejoin:round;stroke-dasharray:none"
       d="m 37.438698,64.755791 8.292549,-14.36302 m -33.169976,14.36296 v -14.36296 m 8.292445,14.36296 -8.292368,-14.36289 m -8.2925218,14.36289 8.2925218,-14.36289 m 0,0 12.43868,-7.18146 4.146226,7.18147 z m 0,0 12.43868,-7.18146 -4.146228,-7.18148 z m 24.87735,14.36295 4e-6,-14.36295 h -8.292455 z m -24.87735,-14.36295 12.438676,7.18149 4.14623,-7.18149 z m 24.877354,-14.36294 -12.438678,7.18147 -4.146226,-7.18147 z m 0,0 -12.438678,7.18147 4.146227,7.18147 z" />
    <path
       id="path4-2-9"
       style="display:inline;mix-blend-mode:normal;fill:none;stroke:#00ff00;stroke-width:1;stroke-linecap:round;stroke-linejoin:round;stroke-dasharray:none"
       d="m 62.316067,50.392664 -16.585014,-4.9e-5 m 29.023675,21.544562 -12.438688,7.18148 m 8.292466,-14.362948 -8.292444,14.362846 m 16.584892,9e-5 -16.584892,-9e-5 m 0,0 -12.438666,-7.181482 4.146222,-7.181473 z m 0,0 -12.438666,-7.181482 -4.14623,7.181479 z m 5e-6,-28.725891 -12.438682,7.181471 4.146228,7.181477 z m -5e-6,28.725891 1.5e-5,-14.362954 -8.292467,5e-6 z m -24.877348,-14.36295 12.438674,7.181476 -4.146222,7.181472 z m 0,0 12.438674,7.181476 4.146222,-7.181473 z" />
    <path
       id="path4-8-6"
       style="display:inline;mix-blend-mode:normal;fill:none;stroke:#00ff00;stroke-width:1;stroke-linecap:round;stroke-linejoin:round;stroke-dasharray:none"
       d="m 161.82556,79.118816 8.29254,-14.36302 m -33.16997,14.36296 v -14.36296 m 8.29244,14.36296 -8.29236,-14.36289 m -8.29253,14.36289 8.29253,-14.36289 m 0,0 12.43868,-7.18146 4.14622,7.18147 z m 0,0 12.43868,-7.18146 -4.14623,-7.18148 z m 24.87735,14.36295 v -14.36295 h -8.29246 z m -24.87735,-14.36295 12.43867,7.18149 4.14623,-7.18149 z m 24.87735,-14.36294 -12.43868,7.18147 -4.14622,-7.18147 z m 0,0 -12.43868,7.18147 4.14623,7.18147 z" />
    <path
       id="path4-8-23"
       style="display:inline;mix-blend-mode:normal;fill:none;stroke:#00ff00;stroke-width:1;stroke-linecap:round;stroke-linejoin:round;stroke-dasharray:none"
       d="M 161.82546,21.666838 153.533,7.3037815 m -4.1463,35.9075105 -12.43869,-7.18147 m 16.5849,10e-6 -16.58479,-5e-5 m 8.29235,14.36299 -8.29235,-14.362989 m 0,0 V 21.666841 l 8.29246,3e-6 z m 0,0 V 21.666841 l -8.29246,10e-7 z m 24.87734,-14.362944 -12.43867,-7.181472 -4.14623,7.181481 z m -24.87734,14.362944 12.43867,-7.181461 -4.14623,-7.181483 z m 0,-28.7258865 V 21.666844 l -8.29246,-3e-6 z m 0,0 V 21.666844 l 8.29244,-6e-6 z" />
    <path
       id="path4-8-2"
       style="display:inline;mix-blend-mode:normal;fill:none;stroke:#00ff00;stroke-width:1;stroke-linecap:round;stroke-linejoin:round;stroke-dasharray:none"
       d="M 112.07087,107.84449 103.7784,93.481436 m -4.146286,35.907514 -12.43869,-7.18148 m 16.584906,2e-5 -16.584806,-5e-5 m 8.29236,14.36298 -8.29236,-14.36298 m 0,0 1e-5,-14.36294 h 8.29245 z m 0,0 1e-5,-14.36294 h -8.29246 z m 24.877346,-14.36294 -12.438676,-7.18148 -4.14623,7.18148 z m -24.877346,14.36294 12.43869,-7.18146 -4.14624,-7.18149 z m 0,-28.725889 V 107.8445 h -8.29245 z m 0,0 V 107.8445 l 8.29245,-1e-5 z" />
    <path
       id="path4-8-4"
       style="display:inline;mix-blend-mode:normal;fill:none;stroke:#00ff00;stroke-width:1;stroke-linecap:round;stroke-linejoin:round;stroke-dasharray:none"
       d="m 186.7031,36.029864 -8.29247,-14.363062 m -4.14629,35.907518 -12.43869,-7.181481 m 16.58491,1.7e-5 -16.58481,-5.1e-5 m 8.29236,14.362988 -8.29236,-14.362988 m 0,0 1e-5,-14.362943 8.29245,3e-6 z m 0,0 1e-5,-14.362943 -8.29246,10e-7 z m 24.87735,-14.362941 -12.43868,-7.181476 -4.14623,7.181481 z m -24.87735,14.362941 12.43868,-7.181459 -4.14623,-7.181486 z m 0,-28.725887 v 14.362948 l -8.29245,-3e-6 z m 0,0 v 14.362948 l 8.29245,-6e-6 z" />
  </g>
</svg>
